<svg width="202" height="214" viewBox="0 0 202 214" fill="none" xmlns="http://www.w3.org/2000/svg">
<path d="M112.715 214V105.668C170.849 77.3981 190.626 54.9984 202 2.82875C134.205 -6.3041 123.362 6.9944 106.534 38.1394C114.777 24.2921 141.123 12.5218 151.5 26.3691C161.877 40.2165 156.342 65.1416 101 84.5278V214H112.715Z" fill="#6AB445"/>
<path d="M89.285 214V105.668C31.1511 77.3981 11.3739 54.9984 2.38419e-06 2.82875C67.7945 -6.3041 78.638 6.9944 95.4658 38.1394C87.2227 24.2921 60.8767 12.5218 50.5 26.3691C40.1233 40.2165 45.6575 65.1416 101 84.5278V214H89.285Z" fill="#6AB445"/>
</svg>
